<svg width="80" height="80" viewBox="0 0 80 80" fill="none" xmlns="http://www.w3.org/2000/svg">
<path d="M6.66699 28.5636C6.66699 24.5763 8.27493 22.1328 11.6024 20.281L25.2999 12.6582C32.4773 8.66385 36.066 6.66669 40.0003 6.66669C43.9347 6.66669 47.5233 8.66385 54.7007 12.6582L68.3983 20.281C71.7257 22.1328 73.3337 24.5764 73.3337 28.5636C73.3337 29.6448 73.3337 30.1854 73.2157 30.6298C72.5953 32.9649 70.4793 33.3334 68.436 33.3334H11.5646C9.52123 33.3334 7.40539 32.9648 6.78506 30.6298C6.66699 30.1854 6.66699 29.6448 6.66699 28.5636Z" stroke="#A0A3BD" stroke-width="2.8"/>
<path d="M39.9863 23.3334H40.0163" stroke="#A0A3BD" stroke-width="3" stroke-linecap="round" stroke-linejoin="round"/>
<path d="M13.333 33.3334V61.6668M26.6663 33.3334V61.6668" stroke="#A0A3BD" stroke-width="2.8"/>
<path d="M53.333 33.3334V61.6668M66.6663 33.3334V61.6668" stroke="#A0A3BD" stroke-width="2.8"/>
<path d="M63.3337 61.6667H16.667C11.1442 61.6667 6.66699 66.1437 6.66699 71.6667C6.66699 72.587 7.41319 73.3334 8.33366 73.3334H71.667C72.5873 73.3334 73.3337 72.587 73.3337 71.6667C73.3337 66.1437 68.8567 61.6667 63.3337 61.6667Z" stroke="#A0A3BD" stroke-width="2.8"/>
</svg>
