<svg width="53" height="52" viewBox="0 0 53 52" fill="none" xmlns="http://www.w3.org/2000/svg">
<rect x="0.5" y="6.10352e-05" width="52" height="52" rx="26" fill="#DCD6CF"/>
<g clip-path="url(#clip0_1238_9690)">
<path d="M39.8333 15.3334V12.6667H37.1666C37.0252 12.6667 36.8895 12.6105 36.7895 12.5105C36.6895 12.4105 36.6333 12.2748 36.6333 12.1334V11.0667C36.6333 10.9253 36.6895 10.7896 36.7895 10.6896C36.8895 10.5896 37.0252 10.5334 37.1666 10.5334H40.9C41.1829 10.5334 41.4542 10.6458 41.6542 10.8458C41.8543 11.0458 41.9666 11.3172 41.9666 11.6001V15.3334C41.9666 15.4748 41.9104 15.6105 41.8104 15.7105C41.7104 15.8105 41.5747 15.8667 41.4333 15.8667H40.3666C40.2252 15.8667 40.0895 15.8105 39.9895 15.7105C39.8895 15.6105 39.8333 15.4748 39.8333 15.3334Z" fill="#A41857"/>
<path d="M15.8332 12.6667H13.1665V15.3334C13.1665 15.4748 13.1103 15.6105 13.0103 15.7105C12.9103 15.8105 12.7747 15.8667 12.6332 15.8667H11.5665C11.4251 15.8667 11.2894 15.8105 11.1894 15.7105C11.0894 15.6105 11.0332 15.4748 11.0332 15.3334V11.6001C11.0332 11.3172 11.1456 11.0458 11.3456 10.8458C11.5457 10.6458 11.817 10.5334 12.0999 10.5334H15.8332C15.9747 10.5334 16.1103 10.5896 16.2103 10.6896C16.3103 10.7896 16.3665 10.9253 16.3665 11.0667V12.1334C16.3665 12.2748 16.3103 12.4105 16.2103 12.5105C16.1103 12.6105 15.9747 12.6667 15.8332 12.6667Z" fill="#A41857"/>
<path d="M13.1665 36.6667V39.3334H15.8332C15.9747 39.3334 16.1103 39.3896 16.2103 39.4896C16.3103 39.5896 16.3665 39.7253 16.3665 39.8667V40.9334C16.3665 41.0748 16.3103 41.2105 16.2103 41.3105C16.1103 41.4105 15.9747 41.4667 15.8332 41.4667H12.0999C11.817 41.4667 11.5457 41.3543 11.3456 41.1543C11.1456 40.9543 11.0332 40.683 11.0332 40.4001V36.6667C11.0332 36.5253 11.0894 36.3896 11.1894 36.2896C11.2894 36.1896 11.4251 36.1334 11.5665 36.1334H12.6332C12.7747 36.1334 12.9103 36.1896 13.0103 36.2896C13.1103 36.3896 13.1665 36.5253 13.1665 36.6667Z" fill="#A41857"/>
<path d="M37.1666 39.3334H39.8333V36.6667C39.8333 36.5253 39.8895 36.3896 39.9895 36.2896C40.0895 36.1896 40.2252 36.1334 40.3666 36.1334H41.4333C41.5747 36.1334 41.7104 36.1896 41.8104 36.2896C41.9104 36.3896 41.9666 36.5253 41.9666 36.6667V40.4001C41.9666 40.683 41.8543 40.9543 41.6542 41.1543C41.4542 41.3543 41.1829 41.4667 40.9 41.4667H37.1666C37.0252 41.4667 36.8895 41.4105 36.7895 41.3105C36.6895 41.2105 36.6333 41.0748 36.6333 40.9334V39.8667C36.6333 39.7253 36.6895 39.5896 36.7895 39.4896C36.8895 39.3896 37.0252 39.3334 37.1666 39.3334Z" fill="#A41857"/>
<path d="M36.6334 21.7334V25.5574L36.1 26.0001H16.9L16.3667 25.5574V21.7334C16.3667 19.7531 17.1534 17.8539 18.5536 16.4537C19.9539 15.0534 21.8531 14.2667 23.8334 14.2667H31.6894C31.8922 14.2664 32.091 14.3239 32.2623 14.4326C32.4336 14.5412 32.5704 14.6964 32.6566 14.8801C32.7429 15.0637 32.7749 15.2681 32.7491 15.4693C32.7232 15.6705 32.6405 15.8602 32.5107 16.0161L32.1907 16.4001L31.3 17.4667H32.3667C33.4983 17.4667 34.5835 17.9162 35.3837 18.7164C36.1838 19.5166 36.6334 20.6018 36.6334 21.7334Z" fill="#68463E"/>
<path d="M19.5666 25.4667C19.5669 25.2492 19.5229 25.0339 19.4371 24.8339C19.3514 24.634 19.2258 24.4536 19.068 24.3039C18.9102 24.1541 18.7236 24.0381 18.5194 23.963C18.3153 23.8878 18.098 23.8551 17.8807 23.8667C17.461 23.9038 17.071 24.0992 16.7898 24.4131C16.5087 24.727 16.3574 25.1361 16.3666 25.5574V28.1334C16.3666 28.6992 16.5914 29.2418 16.9914 29.6419C17.3915 30.042 17.9341 30.2667 18.4999 30.2667C18.4999 32.3885 19.3428 34.4233 20.8431 35.9236C22.3434 37.4239 24.3782 38.2667 26.4999 38.2667C28.6217 38.2667 30.6565 37.4239 32.1568 35.9236C33.6571 34.4233 34.4999 32.3885 34.4999 30.2667C35.0657 30.2667 35.6084 30.042 36.0084 29.6419C36.4085 29.2418 36.6333 28.6992 36.6333 28.1334V25.5574C36.6425 25.1361 36.4912 24.727 36.21 24.4131C35.9289 24.0992 35.5389 23.9038 35.1191 23.8667C34.9019 23.8551 34.6846 23.8878 34.4804 23.963C34.2763 24.0381 34.0896 24.1541 33.9318 24.3039C33.7741 24.4536 33.6485 24.634 33.5627 24.8339C33.477 25.0339 33.433 25.2492 33.4333 25.4667C33.4353 24.9108 33.2365 24.3729 32.8732 23.9521C32.51 23.5312 32.007 23.2558 31.4567 23.1766C29.9053 23.0187 28.41 22.5106 27.0834 21.6907C26.9115 21.5704 26.7066 21.5058 26.4967 21.5058C26.2868 21.5058 26.082 21.5704 25.9101 21.6907C24.5842 22.5099 23.0899 23.0177 21.5394 23.1761C20.9898 23.2561 20.4875 23.532 20.1251 23.9528C19.7626 24.3737 19.5643 24.9113 19.5666 25.4667Z" fill="#A9725E"/>
<path d="M39.2998 28.6667H13.6998C13.5584 28.6667 13.4227 28.6105 13.3227 28.5105C13.2227 28.4105 13.1665 28.2748 13.1665 28.1334C13.1665 27.992 13.2227 27.8563 13.3227 27.7563C13.4227 27.6563 13.5584 27.6001 13.6998 27.6001H39.2998C39.4413 27.6001 39.5769 27.6563 39.677 27.7563C39.777 27.8563 39.8332 27.992 39.8332 28.1334C39.8332 28.2748 39.777 28.4105 39.677 28.5105C39.5769 28.6105 39.4413 28.6667 39.2998 28.6667Z" fill="#E3AAC3"/>
<path d="M32.1908 16.4001L31.3001 17.4667H28.6334C28.492 17.4667 28.3563 17.4105 28.2563 17.3105C28.1563 17.2105 28.1001 17.0748 28.1001 16.9334C28.1001 16.7919 28.1563 16.6563 28.2563 16.5563C28.3563 16.4562 28.492 16.4001 28.6334 16.4001H32.1908Z" fill="#543832"/>
<path d="M12.6332 29.7334C13.5169 29.7334 14.2332 29.017 14.2332 28.1334C14.2332 27.2497 13.5169 26.5334 12.6332 26.5334C11.7495 26.5334 11.0332 27.2497 11.0332 28.1334C11.0332 29.017 11.7495 29.7334 12.6332 29.7334Z" fill="#A41857"/>
<path d="M40.3666 29.7334C41.2503 29.7334 41.9666 29.017 41.9666 28.1334C41.9666 27.2497 41.2503 26.5334 40.3666 26.5334C39.4829 26.5334 38.7666 27.2497 38.7666 28.1334C38.7666 29.017 39.4829 29.7334 40.3666 29.7334Z" fill="#A41857"/>
</g>
<defs>
<clipPath id="clip0_1238_9690">
<rect width="32" height="32" fill="white" transform="translate(10.5 10.0001)"/>
</clipPath>
</defs>
</svg>
