<svg width="52" height="52" viewBox="0 0 52 52" fill="none" xmlns="http://www.w3.org/2000/svg">
<rect y="6.10352e-05" width="52" height="52" rx="26" fill="#DCD6CF"/>
<g clip-path="url(#clip0_1238_9750)">
<path d="M35.931 42.0001H10.4579C10.3364 42.0004 10.2197 41.9522 10.1338 41.8663C10.0479 41.7803 9.99971 41.6637 10 41.5421V34.778C10.001 33.1502 11.2238 31.7825 12.8414 31.6001L18.2759 30.9656H28.2069L31.8979 31.3959L35.931 42.0001Z" fill="#A41857"/>
<path d="M27.9581 28.159L28.2069 30.9656C28.2069 30.9656 27.7071 33.7242 23.2414 33.7242C18.7757 33.7242 18.2759 30.9656 18.2759 30.9656L18.5247 28.159H27.9581Z" fill="#C3AA96"/>
<path d="M15.9419 18.938C15.2081 16.3228 14.3916 10.0001 23.2412 10.0001C32.0909 10.0001 31.2743 16.3228 30.5406 18.938L30.4137 19.9311H16.0688L15.9419 18.938Z" fill="#82624D"/>
<path d="M31.1966 21.3694C31.0862 21.5901 30.9941 21.7948 30.9251 21.9703C30.7568 22.3665 30.6708 22.7928 30.6724 23.2232C30.6768 23.6392 30.4517 24.4922 29.2192 24.4922C29.2596 25.4243 29.0997 26.3543 28.7502 27.2194C28.5551 27.554 28.2976 27.848 27.9916 28.0856C27.4356 28.5316 26.8381 28.9233 26.2073 29.2552C26.0769 29.3225 25.9611 29.4152 25.8669 29.5278C25.2383 30.3613 24.2821 30.8849 23.2413 30.9656C22.6372 30.9541 22.0513 30.7573 21.5629 30.4017C21.2073 30.1568 20.8884 29.8625 20.6156 29.5278C20.5214 29.4152 20.4057 29.3225 20.2752 29.2552C19.6444 28.9233 19.0469 28.5316 18.4909 28.0856C18.1852 27.8487 17.9277 27.5554 17.7323 27.2216C17.3828 26.3565 17.2229 25.4265 17.2633 24.4944C16.0264 24.4944 15.8057 23.6392 15.8151 23.2254C15.8149 23.0847 15.8057 22.9441 15.7875 22.8045C15.7434 22.5191 15.6662 22.2399 15.5574 21.9725C15.4884 21.797 15.3963 21.5934 15.2859 21.3717C14.5963 20.0265 15.1204 19.0699 15.9022 18.9441C16.151 18.9084 16.4048 18.9504 16.6288 19.0643C16.6288 19.0643 17.084 15.0704 18.8589 13.9521C19.0969 13.7923 19.4191 13.8541 19.5811 14.0905C19.9486 14.6081 20.9097 15.2492 23.2413 15.2492C25.5728 15.2492 26.534 14.6064 26.9014 14.0905C27.0634 13.8541 27.3856 13.7923 27.6236 13.9521C29.3985 15.0704 29.8537 19.0643 29.8537 19.0643C30.0776 18.95 30.3315 18.9079 30.5803 18.9441C31.3621 19.0632 31.8862 20.0243 31.1966 21.3694Z" fill="#DDBEA4"/>
<path d="M35.9313 42.0001C39.2831 42.0001 42.0002 39.2829 42.0002 35.9311C42.0002 32.5793 39.2831 29.8621 35.9313 29.8621C32.5795 29.8621 29.8623 32.5793 29.8623 35.9311C29.8623 39.2829 32.5795 42.0001 35.9313 42.0001Z" fill="#95D259"/>
<path d="M21.0347 26.0001H25.4485C25.4485 27.2189 24.4604 28.207 23.2416 28.207C22.0227 28.207 21.0347 27.2189 21.0347 26.0001Z" fill="white"/>
<path d="M34.8276 38.6897C34.6813 38.6897 34.541 38.6315 34.4375 38.5281L33.3341 37.4246C33.125 37.2081 33.128 36.864 33.3408 36.6512C33.5536 36.4384 33.8977 36.4354 34.1142 36.6445L34.768 37.2983L37.6966 33.3932C37.8794 33.1494 38.2252 33.1 38.469 33.2828C38.7127 33.4656 38.7621 33.8115 38.5793 34.0552L35.269 38.469C35.1733 38.5975 35.0265 38.678 34.8668 38.6897H34.8276Z" fill="white"/>
<path d="M27.6551 21.0345C27.3504 21.0345 27.1034 20.7875 27.1034 20.4828C27.1034 20.1781 26.8564 19.9311 26.5517 19.9311C26.2469 19.9311 25.9999 20.1781 25.9999 20.4828C25.9999 20.7875 25.7529 21.0345 25.4482 21.0345C25.1435 21.0345 24.8965 20.7875 24.8965 20.4828C24.8965 19.5687 25.6375 18.8277 26.5517 18.8277C27.4658 18.8277 28.2068 19.5687 28.2068 20.4828C28.2068 20.7875 27.9598 21.0345 27.6551 21.0345Z" fill="#82624D"/>
<path d="M21.0345 21.0345C20.7298 21.0345 20.4828 20.7875 20.4828 20.4828C20.4828 20.1781 20.2358 19.9311 19.9311 19.9311C19.6263 19.9311 19.3793 20.1781 19.3793 20.4828C19.3793 20.7875 19.1323 21.0345 18.8276 21.0345C18.5229 21.0345 18.2759 20.7875 18.2759 20.4828C18.2759 19.5687 19.0169 18.8277 19.9311 18.8277C20.8452 18.8277 21.5862 19.5687 21.5862 20.4828C21.5862 20.7875 21.3392 21.0345 21.0345 21.0345Z" fill="#82624D"/>
<path d="M23.6179 24.3449H22.6899C22.3852 24.3449 22.1382 24.0979 22.1382 23.7932C22.1382 23.4885 22.3852 23.2414 22.6899 23.2414H23.6179C23.6754 23.2378 23.7266 23.204 23.7525 23.1526C23.7983 23.0751 23.8057 22.9808 23.7724 22.8972L22.6568 21.3584C22.5411 21.1988 22.5194 20.9895 22.5998 20.8095C22.6802 20.6294 22.8506 20.506 23.0467 20.4856C23.2428 20.4652 23.4349 20.551 23.5506 20.7107L24.6949 22.2897C24.7103 22.3109 24.7242 22.3332 24.7363 22.3565C24.9618 22.7876 24.9471 23.3049 24.6976 23.7226C24.4728 24.106 24.0624 24.3425 23.6179 24.3449Z" fill="#82624D"/>
</g>
<defs>
<clipPath id="clip0_1238_9750">
<rect width="32" height="32" fill="white" transform="translate(10 10.0001)"/>
</clipPath>
</defs>
</svg>
