<svg width="53" height="52" viewBox="0 0 53 52" fill="none" xmlns="http://www.w3.org/2000/svg">
<rect x="0.5" y="6.10352e-05" width="52" height="52" rx="26" fill="#DCD6CF"/>
<g clip-path="url(#clip0_1238_9706)">
<path d="M30.9535 35.6001L29.7002 37.7334H13.7002V35.6001L14.2335 35.0667L30.9535 35.6001Z" fill="#B9BFCC"/>
<path d="M35.0335 17.3174V28.6667L30.9535 35.6001H13.7002V17.3174L24.3669 10.5334L35.0335 17.3174Z" fill="#D6DBE3"/>
<path d="M22.7666 37.7334H16.3666V27.0667C16.3666 26.9253 16.4228 26.7896 16.5228 26.6896C16.6228 26.5896 16.7585 26.5334 16.8999 26.5334H22.2333C22.3747 26.5334 22.5104 26.5896 22.6104 26.6896C22.7104 26.7896 22.7666 26.9253 22.7666 27.0667V37.7334Z" fill="black"/>
<path d="M25.9668 32.9334V27.0667C25.9668 26.9253 26.023 26.7896 26.123 26.6896C26.223 26.5896 26.3587 26.5334 26.5001 26.5334H31.8335C31.9749 26.5334 32.1106 26.5896 32.2106 26.6896C32.3106 26.7896 32.3668 26.9253 32.3668 27.0667V29.2001L28.6335 32.9334H25.9668Z" fill="#A41857"/>
<path d="M25.9668 24.4001V19.0667C25.9668 18.9253 26.023 18.7896 26.123 18.6896C26.223 18.5896 26.3587 18.5334 26.5001 18.5334H31.8335C31.9749 18.5334 32.1106 18.5896 32.2106 18.6896C32.3106 18.7896 32.3668 18.9253 32.3668 19.0667V24.4001H25.9668Z" fill="#A41857"/>
<path d="M16.3667 24.4001V19.0667C16.3667 18.9253 16.4229 18.7896 16.5229 18.6896C16.6229 18.5896 16.7586 18.5334 16.9 18.5334H22.2334C22.3748 18.5334 22.5105 18.5896 22.6105 18.6896C22.7105 18.7896 22.7667 18.9253 22.7667 19.0667V24.4001H16.3667Z" fill="#A41857"/>
<path d="M35.0334 41.4667C38.8626 41.4667 41.9668 38.3626 41.9668 34.5334C41.9668 30.7042 38.8626 27.6001 35.0334 27.6001C31.2043 27.6001 28.1001 30.7042 28.1001 34.5334C28.1001 38.3626 31.2043 41.4667 35.0334 41.4667Z" fill="#D3BCA6"/>
<g clip-path="url(#clip1_1238_9706)">
<path d="M35.0002 38.1667C36.7491 38.1667 38.1668 36.749 38.1668 35.0001C38.1668 33.2512 36.7491 31.8334 35.0002 31.8334C33.2513 31.8334 31.8335 33.2512 31.8335 35.0001C31.8335 36.749 33.2513 38.1667 35.0002 38.1667Z" fill="#A41857"/>
<path d="M34.5104 37.0741L34.8335 35.5001H33.9789C33.8879 35.5001 33.8192 35.4174 33.836 35.3279L34.2327 33.2921C34.2464 33.2194 34.3097 33.1669 34.3835 33.1669H35.4955C35.602 33.1669 35.676 33.2727 35.6397 33.3729L35.1669 34.8336H36.0155C36.1352 34.8336 36.2074 34.9662 36.1424 35.0667L34.6482 37.1331C34.601 37.2024 34.4927 37.1561 34.5104 37.0741Z" fill="white"/>
<path d="M35.0002 31.3334C34.908 31.3334 34.8335 31.2589 34.8335 31.1667V30.1667C34.8335 30.0746 34.908 30.0001 35.0002 30.0001C35.0923 30.0001 35.1668 30.0746 35.1668 30.1667V31.1667C35.1668 31.2589 35.0923 31.3334 35.0002 31.3334Z" fill="#A41857"/>
<path d="M33.5328 31.6252C33.4674 31.6252 33.4053 31.5866 33.3788 31.5224L32.9961 30.5984C32.9609 30.5132 33.0013 30.4157 33.0863 30.3806C33.1709 30.3456 33.2689 30.3856 33.3041 30.4707L33.6868 31.3947C33.7219 31.4799 33.6816 31.5774 33.5966 31.6126C33.5758 31.6212 33.5541 31.6252 33.5328 31.6252Z" fill="#A41857"/>
<path d="M32.2892 32.4561C32.2466 32.4561 32.2039 32.4397 32.1714 32.4072L31.4644 31.7002C31.3992 31.6351 31.3992 31.5297 31.4644 31.4646C31.5296 31.3994 31.6349 31.3994 31.7001 31.4646L32.4071 32.1716C32.4722 32.2367 32.4722 32.3421 32.4071 32.4072C32.3746 32.4397 32.3319 32.4561 32.2892 32.4561Z" fill="#A41857"/>
<path d="M31.4584 33.6997C31.437 33.6997 31.4154 33.6957 31.3945 33.6871L30.4705 33.3044C30.3855 33.2692 30.3452 33.1717 30.3804 33.0866C30.4155 33.0016 30.5135 32.9616 30.5982 32.9964L31.5222 33.3791C31.6072 33.4142 31.6475 33.5117 31.6124 33.5969C31.5859 33.6611 31.5237 33.6997 31.4584 33.6997Z" fill="#A41857"/>
<path d="M31.1667 35.1667H30.1667C30.0745 35.1667 30 35.0922 30 35.0001C30 34.9079 30.0745 34.8334 30.1667 34.8334H31.1667C31.2588 34.8334 31.3333 34.9079 31.3333 35.0001C31.3333 35.0922 31.2588 35.1667 31.1667 35.1667Z" fill="#A41857"/>
<path d="M30.5344 37.0164C30.469 37.0164 30.4069 36.9777 30.3804 36.9136C30.3452 36.8284 30.3855 36.7309 30.4705 36.6957L31.3945 36.3131C31.4794 36.2782 31.5772 36.3181 31.6124 36.4032C31.6475 36.4884 31.6072 36.5859 31.5222 36.6211L30.5982 37.0037C30.5774 37.0124 30.5557 37.0164 30.5344 37.0164Z" fill="#A41857"/>
<path d="M31.5822 38.5844C31.5396 38.5844 31.4969 38.5681 31.4644 38.5356C31.3992 38.4704 31.3992 38.3651 31.4644 38.2999L32.1714 37.5929C32.2366 37.5277 32.3419 37.5277 32.4071 37.5929C32.4722 37.6581 32.4722 37.7634 32.4071 37.8286L31.7001 38.5356C31.6676 38.5681 31.6249 38.5844 31.5822 38.5844Z" fill="#A41857"/>
<path d="M33.1501 39.6322C33.1288 39.6322 33.1071 39.6282 33.0863 39.6196C33.0013 39.5844 32.9609 39.4869 32.9961 39.4017L33.3788 38.4777C33.4139 38.3926 33.5119 38.3526 33.5966 38.3876C33.6816 38.4227 33.7219 38.5202 33.6868 38.6054L33.3041 39.5294C33.2776 39.5936 33.2154 39.6322 33.1501 39.6322Z" fill="#A41857"/>
<path d="M35.0002 40.0001C34.908 40.0001 34.8335 39.9256 34.8335 39.8334V38.8334C34.8335 38.7412 34.908 38.6667 35.0002 38.6667C35.0923 38.6667 35.1668 38.7412 35.1668 38.8334V39.8334C35.1668 39.9256 35.0923 40.0001 35.0002 40.0001Z" fill="#A41857"/>
<path d="M36.8497 39.6322C36.7843 39.6322 36.7222 39.5936 36.6957 39.5294L36.313 38.6054C36.2778 38.5202 36.3182 38.4227 36.4032 38.3876C36.4877 38.3526 36.5858 38.3927 36.621 38.4777L37.0037 39.4017C37.0388 39.4869 36.9985 39.5844 36.9135 39.6196C36.8927 39.6282 36.871 39.6322 36.8497 39.6322Z" fill="#A41857"/>
<path d="M38.4177 38.5844C38.375 38.5844 38.3323 38.5681 38.2998 38.5356L37.5928 37.8286C37.5277 37.7634 37.5277 37.6581 37.5928 37.5929C37.658 37.5277 37.7633 37.5277 37.8285 37.5929L38.5355 38.2999C38.6007 38.3651 38.6007 38.4704 38.5355 38.5356C38.503 38.5681 38.4603 38.5844 38.4177 38.5844Z" fill="#A41857"/>
<path d="M39.4657 37.0164C39.4444 37.0164 39.4227 37.0124 39.4019 37.0037L38.4779 36.6211C38.3929 36.5859 38.3525 36.4884 38.3877 36.4032C38.4229 36.3181 38.521 36.2781 38.6055 36.3131L39.5295 36.6957C39.6145 36.7309 39.6549 36.8284 39.6197 36.9136C39.5932 36.9777 39.531 37.0164 39.4657 37.0164Z" fill="#A41857"/>
<path d="M39.8332 35.1667H38.8332C38.741 35.1667 38.6665 35.0922 38.6665 35.0001C38.6665 34.9079 38.741 34.8334 38.8332 34.8334H39.8332C39.9253 34.8334 39.9998 34.9079 39.9998 35.0001C39.9998 35.0922 39.9253 35.1667 39.8332 35.1667Z" fill="#A41857"/>
<path d="M38.5417 33.6997C38.4764 33.6997 38.4142 33.6611 38.3877 33.5969C38.3525 33.5117 38.3929 33.4142 38.4779 33.3791L39.4019 32.9964C39.4864 32.9616 39.5845 33.0016 39.6197 33.0866C39.6549 33.1717 39.6145 33.2692 39.5295 33.3044L38.6055 33.6871C38.5847 33.6957 38.563 33.6997 38.5417 33.6997Z" fill="#A41857"/>
<path d="M37.7107 32.4561C37.668 32.4561 37.6253 32.4397 37.5928 32.4072C37.5277 32.3421 37.5277 32.2367 37.5928 32.1716L38.2998 31.4646C38.365 31.3994 38.4703 31.3994 38.5355 31.4646C38.6007 31.5297 38.6007 31.6351 38.5355 31.7002L37.8285 32.4072C37.796 32.4397 37.7533 32.4561 37.7107 32.4561Z" fill="#A41857"/>
<path d="M36.467 31.6252C36.4457 31.6252 36.424 31.6212 36.4032 31.6126C36.3182 31.5774 36.2778 31.4799 36.313 31.3947L36.6957 30.4707C36.731 30.3856 36.8287 30.3454 36.9135 30.3806C36.9985 30.4157 37.0388 30.5132 37.0037 30.5984L36.621 31.5224C36.5945 31.5866 36.5323 31.6252 36.467 31.6252Z" fill="#A41857"/>
</g>
<path d="M29.6307 30.7307C29.4893 30.7307 29.3536 30.6745 29.2536 30.5745L27.723 29.0438C27.6258 28.9432 27.572 28.8085 27.5733 28.6687C27.5745 28.5288 27.6306 28.395 27.7295 28.2962C27.8283 28.1973 27.9621 28.1412 28.1019 28.14C28.2418 28.1388 28.3765 28.1925 28.4771 28.2897L30.0078 29.8203C30.0823 29.8949 30.1331 29.9899 30.1537 30.0934C30.1742 30.1968 30.1637 30.304 30.1233 30.4015C30.083 30.4989 30.0146 30.5822 29.9269 30.6408C29.8392 30.6994 29.7362 30.7307 29.6307 30.7307Z" fill="#C492A8"/>
<path d="M30.2336 22.8001C30.1181 22.8003 30.0058 22.7628 29.9136 22.6934L27.7802 21.0934C27.7242 21.0514 27.677 20.9987 27.6413 20.9385C27.6056 20.8782 27.5822 20.8115 27.5723 20.7422C27.5623 20.6728 27.5662 20.6022 27.5836 20.5344C27.601 20.4665 27.6315 20.4028 27.6736 20.3467C27.7156 20.2907 27.7682 20.2435 27.8285 20.2078C27.8888 20.1721 27.9555 20.1487 28.0248 20.1388C28.1648 20.1188 28.3071 20.1552 28.4202 20.2401L30.5536 21.8401C30.6431 21.9072 30.7093 22.0009 30.7426 22.1077C30.776 22.2146 30.7749 22.3292 30.7395 22.4354C30.7041 22.5416 30.6362 22.6339 30.5454 22.6994C30.4546 22.7648 30.3455 22.8001 30.2336 22.8001Z" fill="#C492A8"/>
<path d="M20.6335 22.8001C20.518 22.8003 20.4057 22.7628 20.3135 22.6934L18.1801 21.0934C18.1241 21.0514 18.0769 20.9987 18.0412 20.9385C18.0055 20.8782 17.9821 20.8115 17.9722 20.7422C17.9522 20.6021 17.9886 20.4599 18.0735 20.3467C18.1583 20.2336 18.2847 20.1588 18.4247 20.1388C18.5647 20.1188 18.707 20.1552 18.8201 20.2401L20.9535 21.8401C21.043 21.9072 21.1092 22.0009 21.1425 22.1077C21.1759 22.2146 21.1748 22.3292 21.1394 22.4354C21.104 22.5416 21.0361 22.6339 20.9453 22.6994C20.8545 22.7648 20.7454 22.8001 20.6335 22.8001Z" fill="#C492A8"/>
<path d="M18.5001 32.9334C18.3587 32.9334 18.223 32.8772 18.123 32.7772C18.023 32.6772 17.9668 32.5415 17.9668 32.4001V31.3334C17.9668 31.1919 18.023 31.0563 18.123 30.9563C18.223 30.8563 18.3587 30.8001 18.5001 30.8001C18.6416 30.8001 18.7772 30.8563 18.8773 30.9563C18.9773 31.0563 19.0335 31.1919 19.0335 31.3334V32.4001C19.0335 32.5415 18.9773 32.6772 18.8773 32.7772C18.7772 32.8772 18.6416 32.9334 18.5001 32.9334Z" fill="#845938"/>
<path d="M28.2866 33.4667H25.4332C25.2918 33.4667 25.1561 33.4105 25.0561 33.3105C24.9561 33.2105 24.8999 33.0748 24.8999 32.9334C24.8999 32.7919 24.9561 32.6563 25.0561 32.5563C25.1561 32.4562 25.2918 32.4001 25.4332 32.4001H28.2866C28.428 32.4001 28.5637 32.4562 28.6637 32.5563C28.7637 32.6563 28.8199 32.7919 28.8199 32.9334C28.8199 33.0748 28.7637 33.2105 28.6637 33.3105C28.5637 33.4105 28.428 33.4667 28.2866 33.4667Z" fill="#B9BFCC"/>
<path d="M32.8999 24.9334H25.4332C25.2918 24.9334 25.1561 24.8772 25.0561 24.7772C24.9561 24.6772 24.8999 24.5415 24.8999 24.4001C24.8999 24.2586 24.9561 24.123 25.0561 24.0229C25.1561 23.9229 25.2918 23.8667 25.4332 23.8667H32.8999C33.0414 23.8667 33.177 23.9229 33.277 24.0229C33.377 24.123 33.4332 24.2586 33.4332 24.4001C33.4332 24.5415 33.377 24.6772 33.277 24.7772C33.177 24.8772 33.0414 24.9334 32.8999 24.9334Z" fill="#B9BFCC"/>
<path d="M23.2998 24.9334H15.8331C15.6917 24.9334 15.556 24.8772 15.456 24.7772C15.356 24.6772 15.2998 24.5415 15.2998 24.4001C15.2998 24.2586 15.356 24.123 15.456 24.0229C15.556 23.9229 15.6917 23.8667 15.8331 23.8667H23.2998C23.4413 23.8667 23.5769 23.9229 23.6769 24.0229C23.7769 24.123 23.8331 24.2586 23.8331 24.4001C23.8331 24.5415 23.7769 24.6772 23.6769 24.7772C23.5769 24.8772 23.4413 24.9334 23.2998 24.9334Z" fill="#B9BFCC"/>
<path d="M30.233 16.9334H18.4996C18.3582 16.9334 18.2225 16.8772 18.1225 16.7772C18.0225 16.6772 17.9663 16.5415 17.9663 16.4001C17.9663 16.2586 18.0225 16.123 18.1225 16.0229C18.2225 15.9229 18.3582 15.8667 18.4996 15.8667H30.233C30.3744 15.8667 30.5101 15.9229 30.6101 16.0229C30.7101 16.123 30.7663 16.2586 30.7663 16.4001C30.7663 16.5415 30.7101 16.6772 30.6101 16.7772C30.5101 16.8772 30.3744 16.9334 30.233 16.9334Z" fill="#B9BFCC"/>
<path d="M37.7 19.6001C37.5963 19.6001 37.4948 19.5697 37.4082 19.5126L24.6493 11.1515C24.5653 11.0965 24.4671 11.0672 24.3666 11.0672C24.2662 11.0672 24.168 11.0965 24.084 11.1515L11.3256 19.5126C11.267 19.5511 11.2015 19.5777 11.1326 19.5909C11.0638 19.6041 10.993 19.6036 10.9244 19.5894C10.8557 19.5753 10.7906 19.5477 10.7326 19.5084C10.6746 19.469 10.6249 19.4186 10.5864 19.3601C10.5479 19.3015 10.5212 19.2359 10.5081 19.1671C10.4949 19.0983 10.4954 19.0275 10.5095 18.9589C10.5237 18.8902 10.5513 18.8251 10.5906 18.7671C10.63 18.7091 10.6804 18.6594 10.7389 18.6209L23.4994 10.2598C23.7571 10.0907 24.0585 10.0006 24.3666 10.0006C24.6748 10.0006 24.9762 10.0907 25.2338 10.2598L37.9922 18.6209C38.0882 18.6838 38.1612 18.7761 38.2006 18.8839C38.2399 18.9917 38.2435 19.1093 38.2106 19.2193C38.1778 19.3292 38.1104 19.4257 38.0184 19.4943C37.9264 19.5629 37.8147 19.6 37.7 19.6001Z" fill="black"/>
<path d="M28.6333 38.2667H11.0333C10.8919 38.2667 10.7562 38.2105 10.6562 38.1105C10.5562 38.0105 10.5 37.8748 10.5 37.7334C10.5 37.5919 10.5562 37.4563 10.6562 37.3563C10.7562 37.2562 10.8919 37.2001 11.0333 37.2001H28.6333C28.7748 37.2001 28.9104 37.2562 29.0105 37.3563C29.1105 37.4563 29.1667 37.5919 29.1667 37.7334C29.1667 37.8748 29.1105 38.0105 29.0105 38.1105C28.9104 38.2105 28.7748 38.2667 28.6333 38.2667Z" fill="#79808F"/>
<path d="M35.0336 42.0001C33.5568 42.0001 32.1132 41.5622 30.8853 40.7417C29.6574 39.9213 28.7004 38.7551 28.1353 37.3908C27.5701 36.0264 27.4223 34.5251 27.7104 33.0767C27.9985 31.6283 28.7096 30.2979 29.7538 29.2537C30.7981 28.2094 32.1285 27.4983 33.5769 27.2102C35.0253 26.9221 36.5266 27.07 37.8909 27.6351C39.2553 28.2002 40.4214 29.1573 41.2419 30.3851C42.0623 31.613 42.5002 33.0566 42.5002 34.5334C42.4981 36.513 41.7108 38.411 40.311 39.8108C38.9111 41.2106 37.0132 41.9979 35.0336 42.0001ZM35.0336 28.1334C33.7678 28.1334 32.5304 28.5088 31.4779 29.212C30.4254 29.9152 29.6051 30.9148 29.1207 32.0842C28.6363 33.2537 28.5096 34.5405 28.7565 35.782C29.0035 37.0235 29.613 38.1638 30.5081 39.0589C31.4031 39.9539 32.5435 40.5635 33.785 40.8104C35.0265 41.0574 36.3133 40.9306 37.4827 40.4462C38.6522 39.9618 39.6517 39.1415 40.355 38.089C41.0582 37.0366 41.4336 35.7992 41.4336 34.5334C41.4317 32.8366 40.7569 31.2098 39.557 30.0099C38.3572 28.8101 36.7304 28.1352 35.0336 28.1334Z" fill="#EFECE9"/>
</g>
<defs>
<clipPath id="clip0_1238_9706">
<rect width="32" height="32" fill="white" transform="translate(10.5 10.0001)"/>
</clipPath>
<clipPath id="clip1_1238_9706">
<rect width="10" height="10" fill="white" transform="translate(30 30.0001)"/>
</clipPath>
</defs>
</svg>
