<svg width="137" height="65" viewBox="0 0 137 65" fill="none" xmlns="http://www.w3.org/2000/svg">
<path d="M9.78627 41.1407H31.8827C37.2909 41.1407 41.6689 36.7706 41.6689 31.3722V9.76847C41.6689 4.3701 37.2909 0 31.8827 0H9.78627C4.37807 0 0 4.3701 0 9.76847V31.3722C0 36.7706 4.38837 41.1407 9.78627 41.1407Z" fill="#C9C0B6"/>
<path d="M0 21.748C2.38991 16.1748 6.54135 6.52971 9.32272 0.0105438H13.2784C16.1113 6.62226 28.3802 35.1565 28.7717 36.0613C29.8945 38.5806 31.5839 40.3492 33.263 41.1512H20.5409C21.8079 40.5034 23.0956 39.0536 21.8801 36.1025C21.0353 34.046 9.54935 7.37289 9.12699 6.40632C6.75768 11.8561 2.11178 22.7865 0 27.7119V21.748Z" fill="black"/>
<path d="M57.4523 41.1407H79.5487C84.9569 41.1407 89.3349 36.7706 89.3349 31.3722V9.76847C89.3349 4.3701 84.9569 0 79.5487 0H57.4523C52.0441 0 47.666 4.3701 47.666 9.76847V31.3722C47.666 36.7706 52.0441 41.1407 57.4523 41.1407Z" fill="#C9C0B6"/>
<path d="M57.3699 20.9148C62.4999 20.524 70.2157 17.0074 70.2157 9.52166C70.2157 5.58342 68.3099 1.91253 63.7876 0.0102539H55.8762C60.7281 0.966536 63.1695 4.79166 63.1695 9.55251C63.1695 16.9765 59.0696 19.9893 52.3325 19.9893C51.6217 19.9893 48.4798 19.9893 47.666 19.9893V21.6654C48.1502 21.6654 48.3974 21.6654 48.9949 21.6654C51.1994 21.6654 52.5695 21.7374 53.8777 23.3312C56.2573 26.272 62.4793 35.4955 67.5476 41.1407H78.1374C70.432 38.2821 64.4675 23.4135 57.3699 20.9148Z" fill="black"/>
<path d="M105.117 41.1406H127.214C132.622 41.1406 137 36.7705 137 31.3722V9.76842C137 4.37006 132.622 -4.57764e-05 127.214 -4.57764e-05H105.117C99.7091 -4.57764e-05 95.3311 4.37006 95.3311 9.76842V31.3722C95.3311 36.7705 99.7091 41.1406 105.117 41.1406Z" fill="#C9C0B6"/>
<path d="M130.583 36.1022V5.12071C130.583 3.40351 130.984 2.06677 131.767 1.13106C130.408 0.411275 128.852 0.0102539 127.214 0.0102539H124.134C121.25 6.68366 110.33 32.0303 109.795 33.295C109.486 32.5341 101.409 13.6553 97.1754 4.08216C96.0217 5.68625 95.3418 7.65023 95.3418 9.77872V15.5678C99.2769 24.6679 104.634 37.0585 106.488 41.1509H108.878C111.639 35.1151 122.002 10.735 124.062 6.01529C124.227 5.64512 124.361 5.26466 124.412 5.16184C124.412 5.23381 124.392 5.73766 124.392 6.02557V36.1125C124.392 38.7345 123.361 40.39 121.497 41.1509H127.224C128.883 41.1509 130.449 40.7396 131.809 40.0096C131.005 39.0944 130.583 37.7988 130.583 36.1022Z" fill="black"/>
<rect width="137" height="17.81" transform="translate(0 46.6309)" fill="black"/>
<path d="M5.31136 60.3035V51.3529H6.56445L9.70997 57.6183L12.8299 51.3529H14.0958V60.3035H13.0217V53.2709L10.1064 59.0632H9.3008L6.38544 53.3092V60.3035H5.31136ZM16.0127 60.3035V51.3529H17.0868V60.3035H16.0127ZM22.8836 60.457C22.0227 60.457 21.2768 60.2652 20.646 59.8816C20.0152 59.4895 19.5293 58.9482 19.1883 58.2577C18.8473 57.5587 18.6768 56.7488 18.6768 55.8282C18.6768 54.9076 18.8473 54.102 19.1883 53.4115C19.5293 52.7125 20.0152 52.1712 20.646 51.7876C21.2768 51.3955 22.0227 51.1994 22.8836 51.1994C23.9066 51.1994 24.7334 51.4424 25.3642 51.9283C26.0036 52.4142 26.4128 53.1004 26.5918 53.9869H25.4154C25.279 53.4328 25.002 52.9896 24.5843 52.6571C24.1666 52.3161 23.5997 52.1456 22.8836 52.1456C22.2528 52.1456 21.703 52.2948 21.2342 52.5932C20.7738 52.883 20.4158 53.305 20.1601 53.8591C19.9043 54.4046 19.7765 55.061 19.7765 55.8282C19.7765 56.5954 19.9043 57.2561 20.1601 57.8101C20.4158 58.3557 20.7738 58.7777 21.2342 59.076C21.703 59.3659 22.2528 59.5108 22.8836 59.5108C23.5997 59.5108 24.1666 59.3488 24.5843 59.0249C25.002 58.6924 25.279 58.2534 25.4154 57.7078H26.5918C26.4128 58.5688 26.0036 59.2422 25.3642 59.7281C24.7334 60.214 23.9066 60.457 22.8836 60.457ZM28.1625 60.3035V51.3529H31.0523C31.7513 51.3529 32.3225 51.4722 32.7657 51.7109C33.209 51.9411 33.5372 52.2522 33.7503 52.6443C33.9634 53.0365 34.07 53.4797 34.07 53.9741C34.07 54.4515 33.9591 54.8905 33.7375 55.2912C33.5244 55.6918 33.192 56.0115 32.7402 56.2502C32.2884 56.4889 31.7087 56.6082 31.0012 56.6082H29.2366V60.3035H28.1625ZM32.8936 60.3035L30.9244 56.3013H32.1264L34.1595 60.3035H32.8936ZM29.2366 55.7643H30.9756C31.6576 55.7643 32.1562 55.598 32.4716 55.2656C32.7956 54.9331 32.9575 54.5069 32.9575 53.9869C32.9575 53.4584 32.7998 53.0407 32.4844 52.7338C32.1775 52.4184 31.6703 52.2607 30.9628 52.2607H29.2366V55.7643ZM39.7182 60.457C38.8657 60.457 38.1156 60.2652 37.4677 59.8816C36.8284 59.4895 36.3254 58.9482 35.9589 58.2577C35.6009 57.5587 35.4219 56.7488 35.4219 55.8282C35.4219 54.9161 35.6009 54.1148 35.9589 53.4243C36.3254 52.7253 36.8284 52.1797 37.4677 51.7876C38.1156 51.3955 38.8657 51.1994 39.7182 51.1994C40.5791 51.1994 41.3293 51.3955 41.9686 51.7876C42.6165 52.1797 43.1194 52.7253 43.4775 53.4243C43.8355 54.1148 44.0145 54.9161 44.0145 55.8282C44.0145 56.7488 43.8355 57.5587 43.4775 58.2577C43.1194 58.9482 42.6165 59.4895 41.9686 59.8816C41.3293 60.2652 40.5791 60.457 39.7182 60.457ZM39.7182 59.5108C40.3575 59.5108 40.9159 59.3659 41.3932 59.076C41.8706 58.7777 42.2414 58.3557 42.5057 57.8101C42.7785 57.2561 42.9148 56.5954 42.9148 55.8282C42.9148 55.061 42.7785 54.4046 42.5057 53.8591C42.2414 53.305 41.8706 52.883 41.3932 52.5932C40.9159 52.3034 40.3575 52.1584 39.7182 52.1584C39.0788 52.1584 38.5205 52.3034 38.0431 52.5932C37.5658 52.883 37.1907 53.305 36.9179 53.8591C36.6536 54.4046 36.5215 55.061 36.5215 55.8282C36.5215 56.5954 36.6536 57.2561 36.9179 57.8101C37.1907 58.3557 37.5658 58.7777 38.0431 59.076C38.5205 59.3659 39.0788 59.5108 39.7182 59.5108ZM45.5819 60.3035V51.3529H51.029V52.2352H46.6559V55.3807H50.3769V56.2502H46.6559V60.3035H45.5819ZM52.4372 60.3035V51.3529H53.5113V60.3035H52.4372ZM55.4466 60.3035V51.3529H56.5207L61.2901 58.5262V51.3529H62.3642V60.3035H61.2901L56.5207 53.1302V60.3035H55.4466ZM63.7244 60.3035L67.0234 51.3529H68.1614L71.4476 60.3035H70.3096L67.586 52.6955L64.8497 60.3035H63.7244ZM65.2333 58.0019L65.5402 57.1324H69.5935L69.9004 58.0019H65.2333ZM72.791 60.3035V51.3529H73.8651L78.6345 58.5262V51.3529H79.7086V60.3035H78.6345L73.8651 53.1302V60.3035H72.791ZM85.5058 60.457C84.6449 60.457 83.899 60.2652 83.2682 59.8816C82.6374 59.4895 82.1515 58.9482 81.8105 58.2577C81.4695 57.5587 81.299 56.7488 81.299 55.8282C81.299 54.9076 81.4695 54.102 81.8105 53.4115C82.1515 52.7125 82.6374 52.1712 83.2682 51.7876C83.899 51.3955 84.6449 51.1994 85.5058 51.1994C86.5288 51.1994 87.3556 51.4424 87.9865 51.9283C88.6258 52.4142 89.035 53.1004 89.214 53.9869H88.0376C87.9012 53.4328 87.6242 52.9896 87.2065 52.6571C86.7888 52.3161 86.2219 52.1456 85.5058 52.1456C84.875 52.1456 84.3252 52.2948 83.8564 52.5932C83.396 52.883 83.038 53.305 82.7823 53.8591C82.5265 54.4046 82.3987 55.061 82.3987 55.8282C82.3987 56.5954 82.5265 57.2561 82.7823 57.8101C83.038 58.3557 83.396 58.7777 83.8564 59.076C84.3252 59.3659 84.875 59.5108 85.5058 59.5108C86.2219 59.5108 86.7888 59.3488 87.2065 59.0249C87.6242 58.6924 87.9012 58.2534 88.0376 57.7078H89.214C89.035 58.5688 88.6258 59.2422 87.9865 59.7281C87.3556 60.214 86.5288 60.457 85.5058 60.457ZM90.7847 60.3035V51.3529H96.3214V52.2352H91.8588V55.3551H95.9378V56.2246H91.8588V59.4213H96.3214V60.3035H90.7847ZM101.436 60.3035V51.3529H104.582C105.212 51.3529 105.732 51.4552 106.142 51.6598C106.559 51.8558 106.87 52.1286 107.075 52.4781C107.28 52.8191 107.382 53.2027 107.382 53.6289C107.382 54.0892 107.28 54.4728 107.075 54.7797C106.879 55.0866 106.619 55.321 106.295 55.483C105.98 55.6449 105.643 55.743 105.285 55.7771L105.464 55.6492C105.848 55.6577 106.201 55.76 106.525 55.9561C106.849 56.1521 107.105 56.4164 107.292 56.7488C107.488 57.0813 107.587 57.4521 107.587 57.8613C107.587 58.3131 107.476 58.7265 107.254 59.1016C107.032 59.4681 106.704 59.7622 106.269 59.9839C105.843 60.197 105.315 60.3035 104.684 60.3035H101.436ZM102.51 59.4085H104.569C105.174 59.4085 105.643 59.2678 105.975 58.9865C106.316 58.6967 106.487 58.296 106.487 57.7846C106.487 57.2816 106.312 56.881 105.963 56.5826C105.622 56.2757 105.149 56.1223 104.543 56.1223H102.51V59.4085ZM102.51 55.2656H104.505C105.085 55.2656 105.524 55.1292 105.822 54.8564C106.129 54.5836 106.282 54.2128 106.282 53.744C106.282 53.2922 106.129 52.9299 105.822 52.6571C105.524 52.3843 105.072 52.2479 104.467 52.2479H102.51V55.2656ZM108.428 60.3035L111.727 51.3529H112.865L116.151 60.3035H115.013L112.289 52.6955L109.553 60.3035H108.428ZM109.937 58.0019L110.244 57.1324H114.297L114.604 58.0019H109.937ZM117.494 60.3035V51.3529H118.568L123.338 58.5262V51.3529H124.412V60.3035H123.338L118.568 53.1302V60.3035H117.494ZM126.348 60.3035V51.3529H127.422V55.4062L131.155 51.3529H132.511L129.186 54.9204L132.562 60.3035H131.258L128.419 55.7515L127.422 56.8128V60.3035H126.348Z" fill="white"/>
</svg>
