<svg width="20" height="21" viewBox="0 0 20 21" fill="none" xmlns="http://www.w3.org/2000/svg">
<path d="M1.66602 7.2086C1.66602 6.21178 2.068 5.60089 2.89987 5.13794L6.32424 3.23224C8.1186 2.23367 9.01577 1.73438 9.99935 1.73438C10.9829 1.73438 11.8801 2.23367 13.6744 3.23224L17.0988 5.13794C17.9307 5.60089 18.3327 6.21179 18.3327 7.2086C18.3327 7.4789 18.3327 7.61405 18.3032 7.72516C18.1481 8.30892 17.6191 8.40104 17.1083 8.40104H2.89042C2.37957 8.40104 1.85062 8.30891 1.69553 7.72516C1.66602 7.61405 1.66602 7.4789 1.66602 7.2086Z" stroke="#667085" stroke-width="1.5"/>
<path d="M9.99609 5.90234H10.0036" stroke="#667085" stroke-width="2" stroke-linecap="round" stroke-linejoin="round"/>
<path d="M3.33398 8.40234V15.4857M6.66732 8.40234V15.4857" stroke="#667085" stroke-width="1.5"/>
<path d="M13.334 8.40234V15.4857M16.6673 8.40234V15.4857" stroke="#667085" stroke-width="1.5"/>
<path d="M15.8327 15.4844H4.16602C2.78531 15.4844 1.66602 16.6036 1.66602 17.9844C1.66602 18.2145 1.85257 18.401 2.08268 18.401H17.916C18.1461 18.401 18.3327 18.2145 18.3327 17.9844C18.3327 16.6036 17.2134 15.4844 15.8327 15.4844Z" stroke="#667085" stroke-width="1.5"/>
</svg>
