<svg width="80" height="80" viewBox="0 0 80 80" fill="none" xmlns="http://www.w3.org/2000/svg">
<path d="M40.1943 73.3336C56.5763 73.3336 70.214 61.646 73.14 46.1956C74 41.656 71.9783 41.8956 67.7016 41.1463C64.6666 40.615 61.834 38.556 60.779 35.2936C60.0606 33.0723 59.7933 32.9828 57.452 32.8854C52.6216 32.6846 48.7513 27.5633 50.6786 23.4204C51.398 21.8748 51.3746 21.6967 50.0273 20.6486C47.6696 18.8146 46.57 15.389 46.994 12.0871C47.4503 8.53065 47.717 7.24931 43.9526 6.84881C24.8565 4.81701 6.66797 20.0656 6.66797 39.983C6.66797 58.402 21.6782 73.3336 40.1943 73.3336Z" stroke="#A0A3BD" stroke-width="4"/>
<path d="M36.6933 40H36.6641" stroke="#A0A3BD" stroke-width="5" stroke-linecap="round" stroke-linejoin="round"/>
<path d="M20.0253 33.333H19.9961" stroke="#A0A3BD" stroke-width="5" stroke-linecap="round" stroke-linejoin="round"/>
<path d="M40.0253 60H39.9961" stroke="#A0A3BD" stroke-width="5" stroke-linecap="round" stroke-linejoin="round"/>
<path d="M33.3333 20L30 23.3333" stroke="#A0A3BD" stroke-width="5" stroke-linecap="round" stroke-linejoin="round"/>
<path d="M56.6654 46.667L53.332 50.0003" stroke="#A0A3BD" stroke-width="5" stroke-linecap="round" stroke-linejoin="round"/>
<path d="M23.332 50L26.6654 53.3333" stroke="#A0A3BD" stroke-width="5" stroke-linecap="round" stroke-linejoin="round"/>
</svg>
