<svg width="28" height="28" viewBox="0 0 28 28" fill="none" xmlns="http://www.w3.org/2000/svg">
<path d="M12.4414 15.166H18.2747M8.94141 15.166H8.95188M14.7747 19.8327H8.94141M18.2747 19.8327H18.2642" stroke="#A41857" stroke-width="1.5" stroke-linecap="round" stroke-linejoin="round"/>
<path d="M20.6055 2.33398V4.66732M6.60547 2.33398V4.66732" stroke="#A41857" stroke-width="1.5" stroke-linecap="round" stroke-linejoin="round"/>
<path d="M2.52344 14.2837C2.52344 9.20026 2.52344 6.65849 3.98424 5.07925C5.44505 3.5 7.79618 3.5 12.4984 3.5H14.7151C19.4174 3.5 21.7685 3.5 23.2293 5.07925C24.6901 6.65849 24.6901 9.20026 24.6901 14.2837V14.8829C24.6901 19.9664 24.6901 22.5081 23.2293 24.0875C21.7685 25.6667 19.4174 25.6667 14.7151 25.6667H12.4984C7.79618 25.6667 5.44505 25.6667 3.98424 24.0875C2.52344 22.5081 2.52344 19.9664 2.52344 14.8829V14.2837Z" stroke="#A41857" stroke-width="1.5" stroke-linecap="round" stroke-linejoin="round"/>
<path d="M3.10547 9.33398H24.1055" stroke="#A41857" stroke-width="1.5" stroke-linecap="round" stroke-linejoin="round"/>
</svg>
