<svg width="90" height="90" viewBox="0 0 90 90" fill="none" xmlns="http://www.w3.org/2000/svg">
<path d="M78.5351 63.1367C76.074 48.3287 68.412 37.3019 61.7512 30.8252C59.8129 28.9405 58.8439 27.9981 56.703 27.126C54.5621 26.2539 52.722 26.2539 49.0417 26.2539H40.9582C37.278 26.2539 35.4379 26.2539 33.2971 27.126C31.1563 27.9981 30.1872 28.9405 28.2489 30.8252C21.5881 37.3019 13.926 48.3287 11.4648 63.1367C9.63348 74.1542 19.7973 82.5039 31.1562 82.5039H58.8439C70.2026 82.5039 80.3666 74.1542 78.5351 63.1367Z" stroke="#667085" stroke-width="3.33333" stroke-linecap="round" stroke-linejoin="round"/>
<path d="M27.2104 16.6569C26.4367 15.5308 25.3153 14.0023 27.6318 13.6538C30.0127 13.2955 32.4851 14.9254 34.9051 14.8919C37.0944 14.8616 38.2098 13.8906 39.4064 12.5041C40.6664 11.0442 42.6175 7.49609 44.998 7.49609C47.3785 7.49609 49.3297 11.0442 50.5897 12.5041C51.7863 13.8906 52.9015 14.8616 55.0908 14.8919C57.511 14.9254 59.9834 13.2955 62.3643 13.6538C64.6807 14.0023 63.5594 15.5308 62.7858 16.6569L59.2874 21.7485C57.7912 23.9266 57.043 25.0156 55.477 25.6309C53.9114 26.2461 51.8879 26.2461 47.8413 26.2461H42.1548C38.1082 26.2461 36.0847 26.2461 34.5189 25.6309C32.9531 25.0156 32.2049 23.9266 30.7085 21.7485L27.2104 16.6569Z" stroke="#667085" stroke-width="3.33333" stroke-linejoin="round"/>
<path d="M33.9721 67.496C33.4244 67.496 32.9638 67.328 32.5904 66.9919C32.2418 66.6558 32.0675 66.2412 32.0675 65.7483V55.497H30.2376C29.6899 55.497 29.2293 55.4186 28.8558 55.2617C28.5073 55.1049 28.333 54.7912 28.333 54.3206C28.333 53.8501 28.5073 53.5364 28.8558 53.3795C29.2293 53.2227 29.6899 53.1443 30.2376 53.1443H32.0675V42.9938C32.0675 42.4785 32.2418 42.064 32.5904 41.7503C32.9638 41.4141 33.4244 41.2461 33.9721 41.2461C34.5697 41.2461 35.0676 41.459 35.4659 41.8847L44.8705 53.1443H51.7484V42.9938C51.7484 42.4785 51.9352 42.064 52.3086 41.7503C52.6821 41.4141 53.1427 41.2461 53.6904 41.2461C54.263 41.2461 54.7236 41.4141 55.0722 41.7503C55.4207 42.064 55.595 42.4785 55.595 42.9938V53.1443H57.2008C57.7735 53.1443 58.234 53.2227 58.5826 53.3795C58.9561 53.5364 59.1428 53.8501 59.1428 54.3206C59.1428 54.7912 58.9561 55.1049 58.5826 55.2617C58.234 55.4186 57.7735 55.497 57.2008 55.497H55.595V65.7483C55.595 66.2412 55.4207 66.6558 55.0722 66.9919C54.7236 67.328 54.263 67.496 53.6904 67.496C53.4414 67.496 53.1675 67.4512 52.8688 67.3616C52.5949 67.2495 52.3709 67.0927 52.1966 66.891L42.6797 55.497H35.9141V65.7483C35.9141 66.2412 35.7274 66.6558 35.3539 66.9919C35.0053 67.328 34.5448 67.496 33.9721 67.496ZM46.8356 55.497L51.7484 61.3789V55.497H46.8356ZM40.7146 53.1443L35.9141 47.3968V53.1443H40.7146Z" fill="#667085"/>
<path d="M33.9721 67.496C33.4244 67.496 32.9638 67.328 32.5904 66.9919C32.2418 66.6558 32.0675 66.2412 32.0675 65.7483V55.497H30.2376C29.6899 55.497 29.2293 55.4186 28.8558 55.2617C28.5073 55.1049 28.333 54.7912 28.333 54.3206C28.333 53.8501 28.5073 53.5364 28.8558 53.3795C29.2293 53.2227 29.6899 53.1443 30.2376 53.1443H32.0675V42.9938C32.0675 42.4785 32.2418 42.064 32.5904 41.7503C32.9638 41.4141 33.4244 41.2461 33.9721 41.2461C34.5697 41.2461 35.0676 41.459 35.4659 41.8847L44.8705 53.1443H51.7484V42.9938C51.7484 42.4785 51.9352 42.064 52.3086 41.7503C52.6821 41.4141 53.1427 41.2461 53.6904 41.2461C54.263 41.2461 54.7236 41.4141 55.0722 41.7503C55.4207 42.064 55.595 42.4785 55.595 42.9938V53.1443H57.2008C57.7735 53.1443 58.234 53.2227 58.5826 53.3795C58.9561 53.5364 59.1428 53.8501 59.1428 54.3206C59.1428 54.7912 58.9561 55.1049 58.5826 55.2617C58.234 55.4186 57.7735 55.497 57.2008 55.497H55.595V65.7483C55.595 66.2412 55.4207 66.6558 55.0722 66.9919C54.7236 67.328 54.263 67.496 53.6904 67.496C53.4414 67.496 53.1675 67.4512 52.8688 67.3616C52.5949 67.2495 52.3709 67.0927 52.1966 66.891L42.6797 55.497H35.9141V65.7483C35.9141 66.2412 35.7274 66.6558 35.3539 66.9919C35.0053 67.328 34.5448 67.496 33.9721 67.496ZM46.8356 55.497L51.7484 61.3789V55.497H46.8356ZM40.7146 53.1443L35.9141 47.3968V53.1443H40.7146Z" stroke="#667085"/>
</svg>
