<svg width="45" height="45" viewBox="0 0 45 45" fill="none" xmlns="http://www.w3.org/2000/svg">
<path d="M39.2676 31.5683C38.037 24.1643 34.206 18.6509 30.8756 15.4126C29.9064 14.4702 29.4219 13.9991 28.3515 13.563C27.2811 13.127 26.361 13.127 24.5209 13.127H20.4791C18.639 13.127 17.7189 13.127 16.6485 13.563C15.5781 13.9991 15.0936 14.4702 14.1244 15.4126C10.794 18.6509 6.96301 24.1643 5.73238 31.5683C4.81674 37.0771 9.89863 41.252 15.5781 41.252H29.4219C35.1013 41.252 40.1833 37.0771 39.2676 31.5683Z" stroke="#A41857" stroke-width="1.66667" stroke-linecap="round" stroke-linejoin="round"/>
<path d="M13.6052 8.32843C13.2184 7.76538 12.6577 7.00115 13.8159 6.82689C15.0064 6.64775 16.2425 7.46268 17.4526 7.44594C18.5472 7.43079 19.1049 6.94528 19.7032 6.25207C20.3332 5.52212 21.3088 3.74805 22.499 3.74805C23.6893 3.74805 24.6648 5.52212 25.2948 6.25207C25.8931 6.94528 26.4508 7.43079 27.5454 7.44594C28.7555 7.46268 29.9917 6.64775 31.1822 6.82689C32.3403 7.00115 31.7797 7.76538 31.3929 8.32843L29.6437 10.8742C28.8956 11.9633 28.5215 12.5078 27.7385 12.8154C26.9557 13.123 25.944 13.123 23.9206 13.123H21.0774C19.0541 13.123 18.0423 13.123 17.2594 12.8154C16.4766 12.5078 16.1025 11.9633 15.3542 10.8742L13.6052 8.32843Z" stroke="#A41857" stroke-width="1.66667" stroke-linejoin="round"/>
<path d="M16.9856 33.748C16.7117 33.748 16.4814 33.664 16.2947 33.4959C16.1204 33.3279 16.0333 33.1206 16.0333 32.8741V27.7485H15.1183C14.8445 27.7485 14.6142 27.7093 14.4274 27.6309C14.2532 27.5524 14.166 27.3956 14.166 27.1603C14.166 26.925 14.2532 26.7682 14.4274 26.6898C14.6142 26.6113 14.8445 26.5721 15.1183 26.5721H16.0333V21.4969C16.0333 21.2392 16.1204 21.032 16.2947 20.8751C16.4814 20.7071 16.7117 20.623 16.9856 20.623C17.2843 20.623 17.5333 20.7295 17.7325 20.9423L22.4348 26.5721H25.8737V21.4969C25.8737 21.2392 25.9671 21.032 26.1538 20.8751C26.3405 20.7071 26.5708 20.623 26.8447 20.623C27.131 20.623 27.3613 20.7071 27.5356 20.8751C27.7099 21.032 27.797 21.2392 27.797 21.4969V26.5721H28.5999C28.8862 26.5721 29.1165 26.6113 29.2908 26.6898C29.4775 26.7682 29.5709 26.925 29.5709 27.1603C29.5709 27.3956 29.4775 27.5524 29.2908 27.6309C29.1165 27.7093 28.8862 27.7485 28.5999 27.7485H27.797V32.8741C27.797 33.1206 27.7099 33.3279 27.5356 33.4959C27.3613 33.664 27.131 33.748 26.8447 33.748C26.7202 33.748 26.5833 33.7256 26.4339 33.6808C26.297 33.6248 26.1849 33.5463 26.0978 33.4455L21.3394 27.7485H17.9566V32.8741C17.9566 33.1206 17.8632 33.3279 17.6765 33.4959C17.5022 33.664 17.2719 33.748 16.9856 33.748ZM23.4173 27.7485L25.8737 30.6894V27.7485H23.4173ZM20.3568 26.5721L17.9566 23.6984V26.5721H20.3568Z" fill="#A41857"/>
<path d="M16.9856 33.748C16.7117 33.748 16.4814 33.664 16.2947 33.4959C16.1204 33.3279 16.0333 33.1206 16.0333 32.8741V27.7485H15.1183C14.8445 27.7485 14.6142 27.7093 14.4274 27.6309C14.2532 27.5524 14.166 27.3956 14.166 27.1603C14.166 26.925 14.2532 26.7682 14.4274 26.6898C14.6142 26.6113 14.8445 26.5721 15.1183 26.5721H16.0333V21.4969C16.0333 21.2392 16.1204 21.032 16.2947 20.8751C16.4814 20.7071 16.7117 20.623 16.9856 20.623C17.2843 20.623 17.5333 20.7295 17.7325 20.9423L22.4348 26.5721H25.8737V21.4969C25.8737 21.2392 25.9671 21.032 26.1538 20.8751C26.3405 20.7071 26.5708 20.623 26.8447 20.623C27.131 20.623 27.3613 20.7071 27.5356 20.8751C27.7099 21.032 27.797 21.2392 27.797 21.4969V26.5721H28.5999C28.8862 26.5721 29.1165 26.6113 29.2908 26.6898C29.4775 26.7682 29.5709 26.925 29.5709 27.1603C29.5709 27.3956 29.4775 27.5524 29.2908 27.6309C29.1165 27.7093 28.8862 27.7485 28.5999 27.7485H27.797V32.8741C27.797 33.1206 27.7099 33.3279 27.5356 33.4959C27.3613 33.664 27.131 33.748 26.8447 33.748C26.7202 33.748 26.5833 33.7256 26.4339 33.6808C26.297 33.6248 26.1849 33.5463 26.0978 33.4455L21.3394 27.7485H17.9566V32.8741C17.9566 33.1206 17.8632 33.3279 17.6765 33.4959C17.5022 33.664 17.2719 33.748 16.9856 33.748ZM23.4173 27.7485L25.8737 30.6894V27.7485H23.4173ZM20.3568 26.5721L17.9566 23.6984V26.5721H20.3568Z" stroke="#A41857"/>
</svg>
