<svg width="28" height="28" viewBox="0 0 28 28" fill="none" xmlns="http://www.w3.org/2000/svg">
<path d="M23.0375 15.1673C23.9602 13.8446 24.5013 12.2357 24.5013 10.5007C24.5013 5.99033 20.845 2.33398 16.3346 2.33398C11.8243 2.33398 8.16797 5.99032 8.16797 10.5007C8.16797 11.7532 8.44994 12.9398 8.95387 14.0007" stroke="#A41857" stroke-width="1.5" stroke-linecap="round" stroke-linejoin="round"/>
<path d="M16.3333 7.00065C15.0446 7.00065 14 7.78415 14 8.75065C14 9.71715 15.0446 10.5007 16.3333 10.5007C17.622 10.5007 18.6667 11.2841 18.6667 12.2507C18.6667 13.2171 17.622 14.0007 16.3333 14.0007M16.3333 7.00065C17.3493 7.00065 18.2135 7.48762 18.5339 8.16732M16.3333 7.00065V5.83398M16.3333 14.0007C15.3174 14.0007 14.4531 13.5137 14.1328 12.834M16.3333 14.0007V15.1673" stroke="#A41857" stroke-width="1.5" stroke-linecap="round"/>
<path d="M3.5 16.334H6.29396C6.63713 16.334 6.97559 16.4113 7.28253 16.5599L9.66484 17.7125C9.97178 17.861 10.3102 17.9383 10.6534 17.9383H11.8698C13.0463 17.9383 14 18.8612 14 19.9997C14 20.0456 13.9685 20.0861 13.9228 20.0987L10.9583 20.9184C10.4266 21.0654 9.85717 21.0142 9.3625 20.7748L6.8158 19.5427M14 19.2507L19.3583 17.6044C20.3082 17.3084 21.335 17.6593 21.93 18.4833C22.3602 19.079 22.185 19.9322 21.5583 20.2939L12.7901 25.3529C12.2324 25.6747 11.5744 25.7532 10.961 25.5712L3.5 23.3572" stroke="#A41857" stroke-width="1.5" stroke-linecap="round" stroke-linejoin="round"/>
</svg>
