<svg width="28" height="28" viewBox="0 0 28 28" fill="none" xmlns="http://www.w3.org/2000/svg">
<path d="M19.8327 13.9466C19.8327 17.1682 17.221 19.7799 13.9993 19.7799C10.7777 19.7799 8.16602 17.1682 8.16602 13.9466C8.16602 10.725 10.7777 8.11328 13.9993 8.11328" stroke="#A41857" stroke-width="1.5" stroke-linecap="round"/>
<path d="M16.334 2.51463C15.5801 2.36159 14.7997 2.28125 14.0007 2.28125C7.55733 2.28125 2.33398 7.50459 2.33398 13.9479C2.33398 20.3912 7.55733 25.6146 14.0007 25.6146C20.4439 25.6146 25.6673 20.3912 25.6673 13.9479C25.6673 13.1489 25.5869 12.3685 25.434 11.6146" stroke="#A41857" stroke-width="1.5" stroke-linecap="round"/>
<path d="M14.0352 13.9044L19.3469 8.59265M23.0303 5.01684L22.3849 2.69851C22.266 2.31658 21.8064 2.16437 21.4967 2.41751C19.8212 3.78666 17.9961 5.63084 19.4866 8.53967C22.4898 9.94008 24.2042 8.0516 25.5187 6.4643C25.7802 6.14848 25.6225 5.67373 25.2286 5.55984L23.0303 5.01684Z" stroke="#A41857" stroke-width="1.5" stroke-linecap="round" stroke-linejoin="round"/>
</svg>
