<svg width="20" height="21" viewBox="0 0 20 21" fill="none" xmlns="http://www.w3.org/2000/svg">
<path d="M18.3327 9.83529C18.3327 14.4376 14.6017 18.1686 9.99935 18.1686C5.39697 18.1686 1.66602 14.4376 1.66602 9.83529C1.66602 5.23291 5.39697 1.50195 9.99935 1.50195C14.6017 1.50195 18.3327 5.23291 18.3327 9.83529Z" stroke="#667085" stroke-width="1.5"/>
<path d="M12.2923 7.7526C12.2923 9.01827 11.2663 10.0443 10.0007 10.0443C8.73498 10.0443 7.70898 9.01827 7.70898 7.7526C7.70898 6.48695 8.73498 5.46094 10.0007 5.46094C11.2663 5.46094 12.2923 6.48695 12.2923 7.7526Z" stroke="#667085" stroke-width="1.5"/>
<path d="M4.58398 15.6686L5.05098 14.8514C5.79283 13.5532 7.17343 12.752 8.6687 12.752H11.3326C12.8279 12.752 14.2085 13.5532 14.9503 14.8514L15.4173 15.6686" stroke="#667085" stroke-width="1.5" stroke-linecap="round" stroke-linejoin="round"/>
</svg>
