<svg width="28" height="28" viewBox="0 0 28 28" fill="none" xmlns="http://www.w3.org/2000/svg">
<path d="M15.1673 8.16667C15.1673 10.744 13.0779 12.8333 10.5007 12.8333C7.92332 12.8333 5.83398 10.744 5.83398 8.16667C5.83398 5.58934 7.92332 3.5 10.5007 3.5C13.0779 3.5 15.1673 5.58934 15.1673 8.16667Z" stroke="#A41857" stroke-width="1.5"/>
<path d="M17.5 12.8333C20.0773 12.8333 22.1667 10.744 22.1667 8.16667C22.1667 5.58934 20.0773 3.5 17.5 3.5" stroke="#A41857" stroke-width="1.5" stroke-linecap="round" stroke-linejoin="round"/>
<path d="M12.834 16.334H8.16732C4.94566 16.334 2.33398 18.9457 2.33398 22.1673C2.33398 23.456 3.37865 24.5007 4.66732 24.5007H16.334C17.6227 24.5007 18.6673 23.456 18.6673 22.1673C18.6673 18.9457 16.0556 16.334 12.834 16.334Z" stroke="#A41857" stroke-width="1.5" stroke-linejoin="round"/>
<path d="M19.834 16.334C23.0556 16.334 25.6673 18.9457 25.6673 22.1673C25.6673 23.456 24.6227 24.5007 23.334 24.5007H21.584" stroke="#A41857" stroke-width="1.5" stroke-linecap="round" stroke-linejoin="round"/>
</svg>
